HIERARCHY
ROOT root
{
	OFFSET 0.000000 0.000000 0.000000
	CHANNELS 6 Xposition Yposition Zposition Zrotation Yrotation Xrotation
	JOINT lhip
	{
		OFFSET 0.058581 -0.082280 -0.017664
		CHANNELS 3 Zrotation Yrotation Xrotation
		JOINT lknee
		{
			OFFSET 0.043451 -0.386469 0.008037
			CHANNELS 3 Zrotation Yrotation Xrotation
			JOINT lankle
			{
				OFFSET -0.014790 -0.426874 -0.037428
				CHANNELS 3 Zrotation Yrotation Xrotation
				JOINT ltoe
				{
					OFFSET 0.041054 -0.060286 0.122042
					CHANNELS 3 Zrotation Yrotation Xrotation
					End Site
					{
						OFFSET 0.000000 0.000000 0.000000
					}
				}
			}
		}
	}
	JOINT rhip
	{
		OFFSET -0.060310 -0.090513 -0.013543
		CHANNELS 3 Zrotation Yrotation Xrotation
		JOINT rknee
		{
			OFFSET -0.043257 -0.383688 -0.004843
			CHANNELS 3 Zrotation Yrotation Xrotation
			JOINT rankle
			{
				OFFSET 0.019056 -0.420046 -0.034562
				CHANNELS 3 Zrotation Yrotation Xrotation
				JOINT rtoe
				{
					OFFSET -0.034840 -0.062106 0.130323
					CHANNELS 3 Zrotation Yrotation Xrotation
					End Site
					{
						OFFSET 0.000000 0.000000 0.000000
					}
				}
			}
		}
	}
	JOINT lowerback
	{
		OFFSET 0.004439 0.124404 -0.038385
		CHANNELS 3 Zrotation Yrotation Xrotation
		JOINT upperback
		{
			OFFSET 0.004488 0.137956 0.026820
			CHANNELS 3 Zrotation Yrotation Xrotation
			JOINT chest
			{
				OFFSET -0.002265 0.056032 0.002855
				CHANNELS 3 Zrotation Yrotation Xrotation
				JOINT lowerneck
				{
					OFFSET -0.013390 0.211636 -0.033468
					CHANNELS 3 Zrotation Yrotation Xrotation
					JOINT upperneck
					{
						OFFSET 0.010113 0.088937 0.050410
						CHANNELS 3 Zrotation Yrotation Xrotation
						End Site
						{
							OFFSET 0.000000 0.000000 0.000000
						}
					}
				}
				JOINT lclavicle
				{
					OFFSET 0.071702 0.114000 -0.018898
					CHANNELS 3 Zrotation Yrotation Xrotation
					JOINT lshoulder
					{
						OFFSET 0.122921 0.045205 -0.019046
						CHANNELS 3 Zrotation Yrotation Xrotation
						JOINT lelbow
						{
							OFFSET 0.255332 -0.015649 -0.022946
							CHANNELS 3 Zrotation Yrotation Xrotation
							JOINT lwrist
							{
								OFFSET 0.265709 0.012698 -0.007375
								CHANNELS 3 Zrotation Yrotation Xrotation
								End Site
								{
									OFFSET 0.000000 0.000000 0.000000
								}
							}
						}
					}
				}
				JOINT rclavicle
				{
					OFFSET -0.082954 0.112472 -0.023707
					CHANNELS 3 Zrotation Yrotation Xrotation
					JOINT rshoulder
					{
						OFFSET -0.113228 0.046853 -0.008472
						CHANNELS 3 Zrotation Yrotation Xrotation
						JOINT relbow
						{
							OFFSET -0.260127 -0.014369 -0.031269
							CHANNELS 3 Zrotation Yrotation Xrotation
							JOINT rwrist
							{
								OFFSET -0.269108 0.006794 -0.006027
								CHANNELS 3 Zrotation Yrotation Xrotation
								End Site
								{
									OFFSET 0.000000 0.000000 0.000000
								}
							}
						}
					}
				}
			}
		}
	}
}
MOTION
Frames: 17
Frame Time: 0.033333
0.474455 0.258087 1.002966 74.566635 2.720289 93.948672 4.488924 9.402658 -6.021650 5.088082 3.664165 4.546689 -2.932857 8.861369 -8.720801 0.000000 -0.000000 0.000000 -1.764180 7.302278 -13.273077 -2.821597 6.801502 8.000195 8.957945 -2.171419 -3.235410 0.000000 -0.000000 0.000000 -4.282013 0.320598 -0.515587 12.870316 -13.095459 1.248753 6.496176 -0.996765 -6.226072 6.016108 5.074229 28.282442 4.574442 -2.485415 -3.698447 11.539547 -34.938350 -11.686954 -27.309841 -26.389032 1.319070 4.455830 -2.816307 18.216091 40.713955 -18.626705 27.353960 -2.882232 28.301635 -11.210198 54.230400 43.132344 23.664136 -166.217578 46.417953 -142.835758 -4.739181 0.685204 -61.544422 
0.472727 0.257677 1.003151 74.240455 2.884627 93.946070 4.661568 9.683231 -6.081482 5.173384 3.619286 4.588219 -2.981573 9.005314 -8.774265 0.000000 -0.000000 0.000000 -1.497290 7.592690 -13.874506 -2.727283 7.040829 8.858220 8.999871 -2.324276 -3.222032 0.000000 -0.000000 0.000000 -4.408991 0.152653 -0.074996 13.119778 -13.229002 0.970395 6.666620 -1.239121 -6.145763 6.097364 5.444414 27.799124 4.448902 -2.225752 -4.169917 11.840600 -35.039017 -11.830870 -26.412671 -25.806080 0.894810 3.959264 -1.287943 18.000605 40.799890 -18.909189 27.035363 -3.216011 28.413337 -11.824078 54.749442 43.338598 24.147830 -165.755854 46.660590 -142.480355 -4.616047 0.937248 -61.391461 
0.470545 0.256608 1.003458 73.143793 2.960005 94.188691 4.697659 9.867087 -6.192419 5.308564 4.039915 4.455383 -2.990682 9.506284 -8.762756 0.000000 -0.000000 0.000000 -1.327392 8.472237 -15.150478 -2.648808 7.361798 10.194268 9.058777 -2.370287 -3.276409 0.000000 -0.000000 0.000000 -4.466574 0.037207 0.597307 13.288459 -13.033698 0.179763 6.563816 -1.642605 -6.361774 6.555254 5.876837 27.344692 4.179987 -2.139982 -3.987589 11.822240 -34.968847 -11.401060 -24.865869 -24.743503 0.086463 3.600820 -0.623074 17.433645 39.881948 -19.763692 27.660135 -3.147469 28.404550 -12.047748 55.610173 43.557831 25.009606 -165.310675 46.953535 -142.023300 -4.590618 1.433626 -60.986452 
0.468251 0.255613 1.004195 71.316756 3.102015 94.224243 4.845388 10.078979 -5.789829 5.359046 4.588373 4.012021 -2.956724 10.562808 -8.682869 0.000000 -0.000000 0.000000 -1.118252 9.581741 -16.154356 -2.355125 8.194317 11.119765 9.036171 -2.512081 -3.022399 0.000000 -0.000000 0.000000 -4.817949 -0.402987 0.497717 13.411029 -13.038808 1.110745 6.793550 -1.689368 -6.305244 6.679387 6.794865 26.617704 3.692556 -1.593802 -4.400916 11.858183 -34.970821 -11.402698 -22.544394 -22.858913 -1.062873 2.896924 -0.030794 16.794503 38.693946 -20.603960 29.723466 -3.370715 28.946322 -12.403106 55.244712 44.064636 24.890151 -164.712669 47.350279 -141.751403 -3.820111 2.603052 -60.915544 
0.465246 0.252657 1.004803 67.596900 3.253606 94.379085 4.985604 10.699276 -4.964352 5.512303 5.996786 3.080708 -2.911447 12.175268 -8.384506 0.000000 -0.000000 0.000000 -0.738545 11.293347 -17.453778 -2.033509 9.621668 11.715909 9.040384 -2.145781 -2.466913 0.000000 -0.000000 0.000000 -4.903981 -1.201246 0.558714 13.358110 -13.245786 2.306789 6.802241 -1.798385 -6.631556 7.031057 8.947117 25.557782 2.459934 0.266916 -4.324762 11.375784 -34.439688 -10.693194 -19.159029 -18.718720 -2.599532 2.133122 0.722837 14.572616 37.122824 -21.936299 31.780356 -3.547815 29.648494 -13.123082 55.462810 45.128237 25.606499 -163.573828 48.379301 -141.602267 -2.026161 4.670411 -60.667484 
0.462861 0.250243 1.004867 64.703587 3.236254 94.691853 4.929504 11.011706 -4.845956 5.638655 7.216181 2.969890 -2.767491 13.341063 -8.342813 0.000000 -0.000000 0.000000 -0.685800 12.428055 -18.389771 -1.761523 10.764907 11.656292 9.184375 -1.750345 -2.194467 0.000000 -0.000000 0.000000 -5.024526 -1.598044 0.955785 13.380079 -13.116479 2.312862 6.903371 -2.426319 -6.646024 7.503203 10.492654 24.221422 1.278334 2.164038 -4.240784 10.140557 -33.963426 -9.092636 -16.800585 -15.301082 -3.878704 2.217367 1.371688 12.624280 34.922247 -23.003663 33.182940 -3.598082 30.021852 -13.558318 56.060611 46.318329 26.462752 -162.457632 49.345777 -140.977388 -0.148860 7.692159 -60.270744 
0.459861 0.247451 1.004737 61.586113 3.075395 94.992650 4.759955 11.524991 -4.990813 5.824396 8.605379 3.409326 -2.734230 14.144969 -8.470367 0.000000 -0.000000 0.000000 -0.736640 13.161042 -19.426309 -1.476795 11.668217 11.673875 9.570980 -0.505499 -1.839355 0.000000 -0.000000 0.000000 -5.143192 -2.036726 1.612813 13.076252 -13.215177 2.557085 6.805025 -2.237718 -6.800965 8.119598 11.980552 22.945048 0.747132 3.257355 -4.840768 9.499154 -33.377943 -8.169805 -15.049969 -11.955454 -4.822269 2.018428 1.721586 11.475373 32.164686 -24.045353 34.712728 -3.725563 30.470825 -13.963241 56.491101 47.310325 26.554033 -161.606480 50.058020 -140.246512 1.413885 10.485215 -60.051289 
0.456275 0.244763 1.004277 58.700668 2.927975 95.549065 4.640889 11.699596 -5.488599 5.888973 9.895375 3.889704 -2.450057 15.165788 -8.324072 0.000000 -0.000000 0.000000 -0.884053 13.490605 -20.482117 -0.937259 12.860252 11.159262 9.823340 0.353113 -1.302498 0.000000 -0.000000 0.000000 -5.246368 -2.241750 1.675626 12.764284 -13.273132 3.024956 6.717576 -2.184927 -6.687145 8.084223 13.453696 21.484351 0.102512 4.789989 -5.037114 9.444389 -32.670211 -7.609258 -14.525068 -9.654693 -5.403720 2.173195 2.434344 9.529122 32.759335 -23.998305 33.831335 -4.013674 30.969829 -14.246857 56.757686 48.593888 26.911053 -160.642909 50.742215 -139.667990 2.689107 12.297697 -59.424947 
0.453695 0.241510 1.004219 56.540317 2.774694 96.012051 4.566004 11.792518 -5.648305 5.928783 10.921137 3.871829 -2.291419 15.826035 -7.970825 0.000000 -0.000000 0.000000 -0.983607 13.652506 -21.036901 -0.594350 13.625754 10.331626 10.020154 1.264038 -0.730352 0.000000 -0.000000 0.000000 -5.284786 -2.310550 1.602512 12.463302 -13.114637 3.560040 6.779470 -2.109005 -6.974177 7.752048 14.723777 20.847572 -0.581678 6.295096 -5.351896 9.315736 -32.499178 -6.846115 -14.897474 -8.557375 -6.315495 2.927981 2.936569 6.477764 33.504547 -23.027226 31.634968 -4.171270 31.632093 -13.970546 56.771531 49.956381 26.996456 -160.185291 51.367862 -139.426178 3.808899 13.804162 -59.199281 
0.452439 0.237802 1.004719 55.735833 2.749768 96.273722 4.737394 11.807582 -5.678865 5.953346 11.398657 3.755118 -2.434382 15.827021 -7.589258 0.000000 -0.000000 0.000000 -0.951985 13.779868 -20.900649 -0.489318 13.738135 9.266982 10.106170 1.660755 -0.257351 0.000000 -0.000000 0.000000 -5.059479 -2.437171 1.351311 12.275381 -13.164179 4.032057 6.872490 -2.232704 -7.238426 7.354952 15.706165 20.646967 -1.329125 7.620079 -5.648811 8.977510 -32.944064 -5.998100 -15.172956 -8.013768 -7.090675 3.601658 3.068512 4.880294 32.753012 -22.603120 30.982545 -4.491462 32.236660 -13.696575 56.786594 50.978830 26.948028 -159.942508 51.927889 -139.366342 4.437452 15.060791 -59.379660 
0.452108 0.234349 1.005413 56.168854 2.710245 96.491909 4.910579 11.656928 -5.824426 5.988928 11.321904 3.579189 -2.664088 15.466423 -7.165926 0.000000 -0.000000 0.000000 -0.952028 13.672275 -20.578836 -0.521144 13.367080 8.449876 9.978467 1.638052 -0.191680 0.000000 -0.000000 0.000000 -4.892810 -2.693105 1.063505 12.311082 -13.574531 4.304401 7.020522 -2.349605 -7.456023 6.927029 16.651454 20.813094 -1.589865 8.169538 -6.165803 9.414806 -33.417945 -5.572794 -16.168860 -8.207603 -7.436377 3.859894 3.135370 3.655378 33.063433 -22.028501 29.195967 -4.889059 32.399224 -13.595907 56.881302 51.575650 26.857227 -160.131618 52.277007 -139.620568 4.688988 15.109080 -59.448291 
0.451655 0.231505 1.006117 57.269766 2.633177 96.713757 5.067957 11.340054 -6.177981 5.997065 11.134270 3.548424 -2.910355 14.809416 -6.831505 0.000000 -0.000000 0.000000 -1.044911 13.475561 -20.317526 -0.571302 12.709074 7.896382 9.818831 1.351799 -0.319871 0.000000 -0.000000 0.000000 -4.727776 -2.965345 0.706918 12.406459 -13.978578 4.533531 7.125155 -2.560651 -7.646660 6.464953 16.656508 20.495620 -1.869857 8.281548 -6.149410 9.621233 -33.810390 -5.486618 -16.809792 -8.988672 -7.857681 4.412808 3.293578 2.581753 32.450675 -21.462725 28.310477 -5.230312 32.442746 -13.627596 56.805355 51.759719 26.712266 -160.027015 52.200678 -139.375717 5.599264 15.907650 -59.417744 
0.451404 0.229155 1.006294 58.680470 2.559173 96.669820 5.314834 11.426845 -6.423546 5.881671 10.458446 3.659516 -3.259696 14.091099 -6.729933 0.000000 -0.000000 0.000000 -1.012465 13.113950 -19.772287 -0.703628 12.158451 7.500805 9.596208 0.979464 -0.642205 0.000000 -0.000000 0.000000 -4.446192 -3.062736 0.556789 12.391605 -14.359546 4.775278 7.037465 -2.722088 -7.917094 6.319872 16.403456 20.442420 -1.685058 8.012842 -6.135714 9.465711 -34.332611 -5.439849 -16.703749 -9.429009 -7.699857 4.837682 2.463284 3.984322 32.704268 -22.051044 28.950696 -5.460145 32.425353 -13.718731 56.127525 51.715235 25.993612 -160.204401 52.236604 -139.378471 4.890885 15.452331 -59.617738 
0.451807 0.227449 1.006196 59.939705 2.485840 96.441096 5.511725 11.445166 -6.267791 5.798746 9.963789 3.506229 -3.620278 13.500382 -6.590478 0.000000 -0.000000 0.000000 -1.006299 12.592530 -19.173053 -0.683879 11.614363 7.348868 9.513205 0.928907 -0.913349 0.000000 -0.000000 0.000000 -4.164586 -3.008939 0.580776 12.410737 -14.495322 4.864291 7.009999 -2.769770 -8.023265 5.993018 16.176417 20.078759 -1.821394 7.575240 -5.769073 9.723243 -34.519963 -5.881209 -17.049809 -10.291803 -7.448683 4.961665 2.184947 4.225407 32.674793 -22.045486 28.510482 -5.652527 32.305031 -13.921899 55.363818 51.606842 25.461073 -160.306648 52.113000 -139.389508 4.772991 15.286760 -59.672021 
0.452169 0.226027 1.006133 61.011572 2.487816 96.284916 5.729586 11.385038 -6.164867 5.777674 9.781845 3.376412 -3.978850 12.880737 -6.451822 0.000000 -0.000000 0.000000 -0.883165 12.271454 -18.901648 -0.763421 10.921616 7.626304 9.327196 1.109491 -1.285379 0.000000 -0.000000 0.000000 -3.861885 -2.972704 0.488321 12.361054 -14.364470 4.819206 7.003552 -2.773189 -8.143811 5.690884 15.847960 20.280046 -1.834259 7.450617 -5.525213 9.568706 -34.366128 -5.976592 -17.742049 -11.200641 -8.077203 6.651659 1.091752 2.655792 32.044017 -21.310190 28.019853 -5.690336 31.992858 -13.835789 55.193491 51.484503 25.027164 -160.620488 52.134760 -139.451466 5.146901 15.594758 -59.810018 
0.452887 0.224602 1.005778 61.734353 2.538847 96.202147 5.961336 11.304589 -6.070209 5.772385 9.866551 3.230850 -4.435051 12.300489 -6.298852 0.000000 -0.000000 0.000000 -0.679997 12.237494 -18.813548 -0.974440 10.333900 8.029727 9.012182 1.205952 -1.521698 0.000000 -0.000000 0.000000 -3.433274 -3.054639 0.248309 12.037853 -13.843181 4.839612 6.886498 -2.565338 -8.391149 5.323343 15.073708 20.571501 -1.602050 7.634527 -5.137347 9.009767 -33.486471 -5.750882 -19.084071 -11.843200 -9.147362 10.454880 -3.175998 0.695328 32.099129 -21.210287 28.203248 -5.795940 31.485855 -13.644339 55.753208 51.240984 24.693470 -161.152238 52.244131 -139.760278 5.204202 15.727111 -59.991007 
0.453807 0.223187 1.005277 62.057386 2.619838 95.950843 6.236265 11.258507 -5.665784 5.724959 10.116135 3.062085 -4.816402 11.818218 -6.341613 0.000000 -0.000000 0.000000 -0.428300 12.313134 -18.536748 -1.230022 9.718137 8.340795 8.844840 1.698151 -1.763010 0.000000 -0.000000 0.000000 -2.956531 -3.100460 0.319565 11.467006 -12.953062 4.684151 6.596121 -2.102364 -8.454666 5.087743 14.065464 20.343709 -1.275655 7.640413 -4.537866 7.980273 -32.080474 -5.571805 -20.461979 -12.416904 -9.664286 15.706075 -9.993025 -1.562631 33.299374 -22.196089 27.856894 -5.530515 30.924446 -13.525780 56.120714 50.952227 24.377699 -161.717561 52.259795 -140.163270 4.674142 15.284010 -60.225756 
